<?xml version="1.0" standalone="no"?>
<!DOCTYPE svg PUBLIC "-//W3C//DTD SVG 20010904//EN"
 "http://www.w3.org/TR/2001/REC-SVG-20010904/DTD/svg10.dtd">
<svg version="1.0" xmlns="http://www.w3.org/2000/svg"
 width="1200.000000pt" height="1200.000000pt" viewBox="0 0 1200.000000 1200.000000"
 preserveAspectRatio="xMidYMid meet">
<metadata>
Created by potrace 1.14, written by Peter Selinger 2001-2017
</metadata>
<g transform="translate(0.000000,1200.000000) scale(0.100000,-0.100000)"
fill="#000000" stroke="none">
<path d="M0 6000 l0 -6000 6000 0 6000 0 0 6000 0 6000 -6000 0 -6000 0 0
-6000z m6345 3835 c294 -29 519 -74 787 -156 887 -272 1649 -863 2142 -1661
26 -43 50 -78 52 -78 3 0 122 68 265 150 143 83 265 153 272 156 9 3 8 -200
-6 -898 -9 -497 -16 -987 -15 -1090 2 -104 2 -188 0 -188 -1 0 -285 156 -630
346 -345 191 -774 428 -954 527 -180 99 -325 184 -323 188 3 4 102 63 220 131
l214 123 -26 45 c-191 331 -545 689 -893 905 -272 168 -583 293 -898 359 -211
45 -382 59 -627 53 -341 -9 -596 -58 -912 -177 l-113 -42 -52 59 c-255 283
-583 474 -947 547 l-115 23 75 50 c519 348 1127 565 1764 628 177 17 549 18
720 0z m-2550 -971 c431 -67 826 -353 1029 -744 115 -222 159 -401 160 -650 0
-183 -15 -288 -66 -445 -138 -428 -488 -776 -918 -913 -167 -53 -257 -67 -445
-66 -184 1 -302 19 -455 70 -422 142 -764 486 -903 909 -46 138 -58 213 -63
390 -9 258 27 435 130 651 170 354 454 610 821 737 231 80 459 99 710 61z
m4770 -2950 c431 -67 826 -353 1029 -744 115 -222 159 -401 160 -650 0 -183
-15 -288 -66 -445 -138 -428 -488 -776 -918 -913 -167 -53 -257 -67 -445 -66
-184 1 -302 19 -455 70 -422 142 -764 486 -903 909 -46 138 -58 213 -63 390
-9 258 27 435 130 651 170 354 454 610 821 737 231 80 459 99 710 61z m-5790
-332 c308 -170 632 -350 720 -399 88 -49 253 -140 368 -203 l207 -114 -79 -45
c-44 -25 -142 -82 -220 -126 -77 -44 -140 -85 -141 -90 0 -14 115 -186 190
-285 437 -574 1107 -954 1855 -1051 166 -22 541 -17 712 10 165 25 365 73 508
123 l99 35 85 -90 c269 -282 622 -466 995 -518 l86 -12 -52 -36 c-411 -276
-953 -490 -1462 -576 -242 -40 -367 -50 -651 -50 -457 1 -791 54 -1215 195
-732 242 -1355 685 -1839 1308 -67 86 -198 278 -248 364 l-22 37 -273 -158
c-177 -102 -274 -153 -276 -144 -2 7 4 374 12 815 9 442 16 928 16 1080 l0
277 33 -18 c17 -11 284 -158 592 -329z"/>
<path d="M3400 8250 l0 -119 -74 -35 c-97 -44 -167 -110 -209 -195 -31 -63
-32 -70 -32 -186 0 -105 3 -125 23 -162 54 -102 156 -163 387 -233 198 -61
252 -90 270 -148 10 -33 -13 -80 -46 -98 -101 -52 -335 -7 -511 100 l-55 33
-67 -135 c-53 -106 -65 -137 -54 -144 41 -29 189 -92 272 -115 l96 -27 0 -118
0 -118 165 0 165 0 0 114 0 115 55 11 c132 27 251 123 296 238 31 80 32 223 1
303 -47 120 -165 195 -421 269 -163 47 -210 67 -240 106 -39 49 -21 116 39
146 78 39 222 17 378 -58 52 -25 95 -44 96 -42 11 15 126 240 126 247 0 21
-259 131 -311 131 -18 0 -19 8 -19 120 l0 120 -165 0 -165 0 0 -120z"/>
<path d="M8325 5346 c-87 -20 -189 -61 -258 -103 -77 -46 -180 -148 -237 -233
-45 -66 -102 -190 -114 -248 -7 -31 -10 -32 -56 -32 -26 0 -52 -6 -58 -12 -8
-11 -82 -185 -82 -195 0 -2 36 -3 80 -3 78 0 80 -1 80 -24 0 -13 3 -38 6 -55
l7 -31 -54 0 -54 0 -38 -93 c-20 -50 -37 -98 -37 -104 0 -10 30 -13 119 -13
l118 0 18 -46 c29 -75 129 -215 204 -286 84 -79 178 -137 286 -175 74 -26 91
-28 230 -27 136 0 158 3 235 28 193 64 344 177 412 310 24 48 38 35 -156 148
-122 70 -141 79 -150 65 -6 -9 -22 -35 -36 -58 -78 -129 -278 -188 -435 -128
-46 17 -76 38 -130 93 l-70 71 170 5 169 5 42 100 42 100 -249 3 -249 2 0 55
0 55 243 0 243 0 38 93 c21 50 40 98 43 104 4 10 -56 13 -265 15 l-270 3 26
55 c40 81 133 172 207 199 81 30 198 31 277 1 95 -35 138 -74 203 -185 9 -14
28 -4 150 80 77 54 144 101 149 106 14 13 -78 143 -136 192 -72 63 -163 115
-253 144 -66 21 -103 26 -215 29 -91 2 -155 -1 -195 -10z"/>
</g>
</svg>
